# xmcd
#
# Track frame offsets:
#	150
#	13825
#	28712
#	43926
#	59940
#	79837
#	101411
#	119291
#	133162
#	150460
#	169310
#	186872
#	203715
#
# Disc length: 2990 seconds
# Revision: 0
# Processed by: cddbd v1.5.2PL0 Copyright (c) Steve Scherf et al.
# Submitted via: dBpowerAMP V12.0
#
DISCID=b80bac0d
DTITLE=Brother Slade - No Relation
DYEAR=2010
DGENRE=Americana
TTITLE0=Tom Petty Song
TTITLE1=I Know How
TTITLE2=Look What the Trailer Park Drug in
TTITLE3=Girl With a Mobile Home
TTITLE4=Too Hot to BBQ
TTITLE5=Where's California
TTITLE6=Matthew James
TTITLE7=Motorcycle
TTITLE8=Time Well Wasted
TTITLE9=You Are the Train
TTITLE10=Rodeo Queen
TTITLE11=Covers
TTITLE12=I Fell Off of the World
EXTD=
EXTT0=
EXTT1=
EXTT2=
EXTT3=
EXTT4=
EXTT5=
EXTT6=
EXTT7=
EXTT8=
EXTT9=
EXTT10=
EXTT11=
EXTT12=
PLAYORDER=
